# xmcd
#
# Track frame offsets:
#	150
#	20560
#	42529
#	64584
#	83407
#	106172
#	126749
#	146976
#	171953
#	196829
#
# Disc length: 2922 seconds
#
# Revision: 1
# Processed by: cddbd v1.5.2PL0 Copyright (c) Steve Scherf et al.
# Submitted via: EZCDAudioConverter 8.0.2.1
#
DISCID=8d0b680a
DTITLE=Various Artist - Người Tình
DYEAR=2012
DGENRE=Country
TTITLE0=Như Quỳnh - Thương lắm mình ơi
TTITLE1=Duy Trường - Giận em
TTITLE2=Mai Thiên Vân - Người Tình
TTITLE3=Hương Thủy - Hương tình gái quê
TTITLE4=Khánh Lâm - Một mai giã từ vũ khí
TTITLE5=Hạ Vy - Người tình không đến
TTITLE6=Quang Lê - Chiều nước lũ
TTITLE7=Mai Thiên Vân - Hoa tím ngày xưa
TTITLE8=Khánh Lâm - Xin làm người xa lạ
TTITLE9=Quang Le and Mai Thien Van - Đôi mắt người xưa
EXTD=
EXTT0=
EXTT1=
EXTT2=
EXTT3=
EXTT4=
EXTT5=
EXTT6=
EXTT7=
EXTT8=
EXTT9=
PLAYORDER=
